<svg width="96" height="50" viewBox="0 0 96 50" fill="none" xmlns="http://www.w3.org/2000/svg">
<path d="M31.6153 24.66C34.5086 25.3133 36.7953 26.76 38.4753 29C40.202 31.1933 41.0653 33.7133 41.0653 36.56C41.0653 40.76 39.6186 44.05 36.7253 46.43C33.832 48.81 29.772 50 24.5453 50H0.115313V0.649997H23.7753C28.8153 0.649997 32.7586 1.77 35.6053 4.01C38.4986 6.25 39.9453 9.4 39.9453 13.46C39.9453 16.3533 39.1753 18.78 37.6353 20.74C36.142 22.6533 34.1353 23.96 31.6153 24.66ZM13.8353 20.25H20.7653C24.2186 20.25 25.9453 18.8267 25.9453 15.98C25.9453 13.04 24.2186 11.57 20.7653 11.57H13.8353V20.25ZM21.8153 38.94C25.2686 38.94 26.9953 37.4933 26.9953 34.6C26.9953 33.1067 26.5286 31.9633 25.5953 31.17C24.7086 30.3767 23.4253 29.98 21.7453 29.98H13.8353V38.94H21.8153ZM78.2982 41.95H60.7982L58.1382 50H43.7182L61.7082 0.649997H77.5282L95.4482 50H80.9582L78.2982 41.95ZM74.8682 31.45L69.5482 15.49L64.2982 31.45H74.8682Z" fill="white"/>
</svg>
