<svg width="289" height="90" viewBox="0 0 289 90" fill="none" xmlns="http://www.w3.org/2000/svg">
<path d="M197.922 14.139V8.74511H193.458V14.139H189V0.334961H193.464V5.42484H197.928V0.334961H202.392V14.139H197.922Z" fill="white"/>
<path d="M226.928 14.139L226.274 11.962H221.601L220.948 14.139H216.575L221.366 0.334961H226.856L231.647 14.139H226.928ZM223.941 4.24511L222.588 8.74511H225.3L223.941 4.24511Z" fill="white"/>
<path d="M254.713 14.139L250.014 6.31268V14.139H245.785V0.334961H250.367L254.831 7.70524V0.334961H259.059V14.139H254.713Z" fill="white"/>
<path d="M285.994 12.5762C284.589 13.6647 282.72 14.139 280.269 14.139H274.707V0.334961H280.269C282.726 0.334961 284.595 0.815372 285.994 1.8978C287.393 2.98632 288.445 4.72551 288.445 7.22484C288.452 9.76673 287.399 11.4877 285.994 12.5762ZM282.89 4.3789C282.308 3.83768 281.439 3.55186 280.158 3.55186H279.177V10.8127H280.158C281.445 10.8127 282.308 10.5269 282.89 9.98565C283.471 9.44443 283.896 8.59308 283.896 7.18227C283.896 5.77145 283.471 4.92011 282.89 4.3789Z" fill="white"/>
<path d="M193.464 30.1019V32.5343H198.725V35.8181H193.464V40.6891H189V26.885H199.163V30.1019H193.464Z" fill="white"/>
<path d="M224.118 40.9083C219.445 40.9083 216.543 38.1902 216.543 33.7753C216.543 29.3604 219.438 26.6665 224.118 26.6665C228.791 26.6665 231.687 29.3604 231.687 33.7753C231.687 38.1962 228.785 40.9083 224.118 40.9083ZM224.118 30.0597C222.014 30.0597 221.105 31.6712 221.105 33.7327C221.105 35.8003 222.014 37.43 224.118 37.43C226.223 37.43 227.131 35.8003 227.131 33.7327C227.131 31.6712 226.216 30.0597 224.118 30.0597Z" fill="white"/>
<path d="M254.758 40.6949L252.092 35.9334H250.968V40.6949H246.504V26.8909H252.883C254.516 26.8909 256.013 27.0855 257.039 27.7605C258.065 28.4355 258.889 29.6091 258.889 31.2388C258.889 32.8686 258.307 34.328 256.32 35.1976L259.778 40.701H254.758V40.6949ZM252.661 29.9922H250.981V32.9051H252.661C253.687 32.9051 254.438 32.4064 254.438 31.4456C254.438 30.4848 253.687 29.9922 252.661 29.9922Z" fill="white"/>
<path d="M285.994 39.1262C284.589 40.2147 282.72 40.6891 280.269 40.6891H274.707V26.885H280.269C282.726 26.885 284.595 27.3654 285.994 28.4478C287.393 29.5364 288.445 31.2756 288.445 33.7749C288.452 36.3229 287.399 38.0377 285.994 39.1262ZM282.89 30.9289C282.308 30.3877 281.439 30.1019 280.158 30.1019H279.177V37.3627H280.158C281.445 37.3627 282.308 37.0769 282.89 36.5357C283.471 35.9945 283.896 35.1431 283.896 33.7323C283.89 32.3215 283.471 31.4762 282.89 30.9289Z" fill="white"/>
<path d="M200.072 56.1713C200.072 56.1713 199.144 54.2375 196.471 54.2375C193.797 54.2375 191.974 56.299 191.974 59.2483C191.974 62.1978 193.699 64.2593 196.392 64.2593C199.085 64.2593 200.216 62.2525 200.216 62.2525L201.046 62.8971C201.046 62.8971 199.758 65.2748 196.392 65.2748C193.026 65.2748 190.745 62.9336 190.745 59.2483C190.745 55.5632 193.32 53.2402 196.49 53.2402C199.66 53.2402 200.863 55.3382 200.967 55.5267L200.072 56.1713Z" fill="white"/>
<path d="M227.497 65.1041L223.877 60.0388H221.7V65.1041H220.51V53.4043H224.177C226.55 53.4043 228.197 54.7847 228.197 56.7185C228.197 58.6523 226.556 59.7043 225.21 59.9415L228.929 65.098H227.497V65.1041ZM225.948 54.7908C225.354 54.4198 224.759 54.3286 223.772 54.3286H221.694V59.1205H223.772C224.759 59.1205 225.354 59.0293 225.948 58.6583C226.543 58.2874 227.001 57.5516 227.001 56.7246C227.001 55.8915 226.543 55.1557 225.948 54.7908Z" fill="white"/>
<path d="M249.156 65.1041V53.4043H256.385V54.3104H250.346V58.3786H255.993V59.3029H250.346V64.1676H256.581V65.1102H249.156V65.1041Z" fill="white"/>
<path d="M285.36 65.1041L284.072 61.8264H278.229L276.941 65.1041H275.752L280.543 53.4043H281.83L286.641 65.1041H285.36ZM281.157 54.4198L278.582 60.9082H283.713L281.157 54.4198Z" fill="white"/>
<path d="M196.294 78.7561V89.5318H195.104V78.7561H191.143V77.8379H200.254V78.7561H196.294Z" fill="white"/>
<path d="M223.523 89.5318V77.8379H224.712V89.5379H223.523V89.5318Z" fill="white"/>
<path d="M253.02 89.5318H251.83L247.281 77.8379H248.569L252.471 88.3399L256.392 77.8379H257.582L253.02 89.5318Z" fill="white"/>
<path d="M277.929 89.5318V77.8379H285.157V78.7379H279.118V82.8122H284.765V83.7365H279.118V88.6014H285.354V89.544H277.929V89.5318Z" fill="white"/>
<path d="M8.99926 14.1147V8.73295H4.54175V14.1147H0.0842285V0.334961H4.54175V5.41267H8.99926V0.334961H13.4568V14.1147H8.99926Z" fill="white"/>
<path d="M37.9542 14.1147L37.3006 11.9438H32.6339L31.9803 14.1147H27.6208L32.4051 0.334961H37.8888L42.6731 14.1147H37.9542ZM34.9673 4.23902L33.6142 8.73295H36.3202L34.9673 4.23902Z" fill="white"/>
<path d="M65.6855 14.1147L60.9993 6.30051V14.1147H56.7771V0.334961H61.3457L65.8032 7.69308V0.334961H70.0254V14.1147H65.6855Z" fill="white"/>
<path d="M96.9079 12.5519C95.5092 13.6343 93.64 14.1147 91.1955 14.1147H85.6465V0.334961H91.1955C93.6465 0.334961 95.5092 0.815372 96.9079 1.8978C98.3066 2.98024 99.3589 4.71942 99.3589 7.21268C99.3524 9.75457 98.3066 11.4694 96.9079 12.5519ZM93.8033 4.36672C93.2216 3.82551 92.3589 3.5397 91.0713 3.5397H90.0909V10.7884H91.0713C92.3524 10.7884 93.2151 10.5086 93.8033 9.96132C94.385 9.42011 94.8033 8.57484 94.8033 7.16403C94.8033 5.75929 94.385 4.91402 93.8033 4.36672Z" fill="white"/>
<path d="M4.4575 30.047V32.4794H9.70588V35.7571H4.4575V40.622H0V26.8423H10.1503V30.0531H4.4575V30.047Z" fill="white"/>
<path d="M35.1432 40.8353C30.4765 40.8353 27.5876 38.1232 27.5876 33.7205C27.5876 29.3178 30.4831 26.6238 35.1432 26.6238C39.8099 26.6238 42.6988 29.3178 42.6988 33.7205C42.6988 38.1232 39.8033 40.8353 35.1432 40.8353ZM35.1432 30.0049C33.0452 30.0049 32.1367 31.6103 32.1367 33.6718C32.1367 35.7332 33.0452 37.363 35.1432 37.363C37.2412 37.363 38.1497 35.7332 38.1497 33.6718C38.1497 31.6103 37.2412 30.0049 35.1432 30.0049Z" fill="white"/>
<path d="M65.7315 40.6162L63.0712 35.8608H61.9536V40.6162H57.4961V26.8364H63.862C65.4962 26.8364 66.9864 27.031 68.0126 27.706C69.0387 28.381 69.8557 29.5485 69.8557 31.1783C69.8557 32.808 69.274 34.2614 67.2871 35.131L70.7381 40.6222H65.7315V40.6162ZM63.6268 29.9378H61.947V32.8445H63.6268C64.653 32.8445 65.3982 32.3458 65.3982 31.3911C65.4047 30.4424 64.6595 29.9378 63.6268 29.9378Z" fill="white"/>
<path d="M96.9079 39.0533C95.5092 40.1418 93.64 40.6162 91.1955 40.6162H85.6465V26.8364H91.1955C93.6465 26.8364 95.5092 27.3168 96.9079 28.3993C98.3066 29.4817 99.3589 31.2209 99.3589 33.7141C99.3524 36.256 98.3066 37.9709 96.9079 39.0533ZM93.8033 30.8742C93.2216 30.333 92.3589 30.0472 91.0713 30.0472H90.0909V37.2958H91.0713C92.3524 37.2958 93.2151 37.0162 93.8033 36.4689C94.385 35.9276 94.8033 35.0823 94.8033 33.6715C94.8033 32.2607 94.385 31.4154 93.8033 30.8742Z" fill="white"/>
<path d="M6.18237 64.9824V53.3069H7.36539V64.9824H6.18237Z" fill="white"/>
<path d="M40.196 64.9824L39.8365 54.4988L35.5882 64.9824H34.6012L30.3529 54.4988L30.0195 64.9824H28.8757L29.3725 53.3069H31.0522L35.1437 63.5169L39.2548 53.3069H40.9346L41.4313 64.9824H40.196Z" fill="white"/>
<path d="M67.5477 64.9824L66.2601 61.7108H60.4299L59.1424 64.9824H57.9529L62.7371 53.3069H64.0182L68.8222 64.9824H67.5477ZM63.3581 54.3163L60.7895 60.7927H65.9071L63.3581 54.3163Z" fill="white"/>
<path d="M85.2483 61.1761V60.3308H98.9869V61.1579L85.2483 61.1761Z" fill="white"/>
<path d="M11.0187 89.3683L10.8618 87.896C10.8618 87.896 9.59385 89.5319 6.82915 89.5319C3.56772 89.5319 1.29321 87.1973 1.29321 83.5183C1.29321 79.8392 3.86183 77.5217 7.02523 77.5217C10.1886 77.5217 11.4697 79.7115 11.4697 79.7115L10.5808 80.3561C10.5808 80.3561 9.67229 78.519 7.00562 78.519C4.33896 78.519 2.52195 80.5805 2.52195 83.5238C2.52195 86.467 4.24092 88.5224 6.92719 88.5224C9.61346 88.5224 10.6984 86.7954 10.6984 86.7954V84.4973H7.2213V83.5785H11.8684V89.3738H11.0187V89.3683Z" fill="white"/>
<path d="M34.5486 89.3688V77.6931H35.7381V89.3688H34.5486Z" fill="white"/>
<path d="M67.0574 89.3688L59.7437 79.0735V89.3688H58.6587V77.6931H60.0835L67.0574 87.5323V77.6931H68.1424V89.3688H67.0574Z" fill="white"/>
<path d="M96.3588 89.3683L96.2019 87.896C96.2019 87.896 94.934 89.5319 92.1693 89.5319C88.9078 89.5319 86.6333 87.1973 86.6333 83.5183C86.6333 79.8392 89.2019 77.5217 92.3653 77.5217C95.5287 77.5217 96.8098 79.7115 96.8098 79.7115L95.9209 80.3561C95.9209 80.3561 95.0124 78.519 92.3457 78.519C89.6791 78.519 87.8621 80.5805 87.8621 83.5238C87.8621 86.467 89.581 88.5224 92.2738 88.5224C94.9601 88.5224 96.0451 86.7954 96.0451 86.7954V84.4973H92.5679V83.5785H97.215V89.3738H96.3588V89.3683Z" fill="white"/>
</svg>
