<svg width="592" height="440" viewBox="0 0 592 440" fill="none" xmlns="http://www.w3.org/2000/svg">
<mask id="mask0" mask-type="alpha" maskUnits="userSpaceOnUse" x="0" y="0" width="592" height="440">
<rect width="592" height="440" transform="matrix(-1 0 0 1 592 0)" fill="white"/>
</mask>
<g mask="url(#mask0)">
<rect opacity="0.02" width="592" height="440" transform="matrix(-1 0 0 1 592 0)" fill="#3C64B1"/>
<g opacity="0.06">
<path d="M592 0L0 440" stroke="#3C64B1"/>
<path d="M568.875 -17.1875L-23.125 422.812" stroke="#3C64B1"/>
<path d="M545.75 -34.375L-46.25 405.625" stroke="#3C64B1"/>
<path d="M522.625 -51.5625L-69.375 388.438" stroke="#3C64B1"/>
<path d="M499.5 -68.75L-92.5 371.25" stroke="#3C64B1"/>
<path d="M476.375 -85.9375L-115.625 354.062" stroke="#3C64B1"/>
<path d="M453.25 -103.125L-138.75 336.875" stroke="#3C64B1"/>
<path d="M430.125 -120.312L-161.875 319.688" stroke="#3C64B1"/>
<path d="M407 -137.5L-185 302.5" stroke="#3C64B1"/>
<path d="M383.875 -154.688L-208.125 285.312" stroke="#3C64B1"/>
<path d="M360.75 -171.875L-231.25 268.125" stroke="#3C64B1"/>
<path d="M337.625 -189.062L-254.375 250.938" stroke="#3C64B1"/>
<path d="M314.5 -206.25L-277.5 233.75" stroke="#3C64B1"/>
<path d="M615.125 17.1875L23.125 457.188" stroke="#3C64B1"/>
<path d="M638.25 34.375L46.25 474.375" stroke="#3C64B1"/>
<path d="M661.375 51.5625L69.375 491.562" stroke="#3C64B1"/>
<path d="M684.5 68.75L92.5 508.75" stroke="#3C64B1"/>
<path d="M707.625 85.9375L115.625 525.938" stroke="#3C64B1"/>
<path d="M730.75 103.125L138.75 543.125" stroke="#3C64B1"/>
<path d="M753.875 120.312L161.875 560.312" stroke="#3C64B1"/>
<path d="M777 137.5L185 577.5" stroke="#3C64B1"/>
<path d="M800.125 154.688L208.125 594.688" stroke="#3C64B1"/>
<path d="M823.25 171.875L231.25 611.875" stroke="#3C64B1"/>
<path d="M846.375 189.062L254.375 629.062" stroke="#3C64B1"/>
<path d="M869.5 206.25L277.5 646.25" stroke="#3C64B1"/>
<path d="M892.625 223.438L300.625 663.438" stroke="#3C64B1"/>
</g>
<g opacity="0.06">
<path d="M580.438 -8.59375L-11.5625 431.406" stroke="#3C64B1"/>
<path d="M557.312 -25.7812L-34.6875 414.219" stroke="#3C64B1"/>
<path d="M534.188 -42.9688L-57.8125 397.031" stroke="#3C64B1"/>
<path d="M511.062 -60.1562L-80.9375 379.844" stroke="#3C64B1"/>
<path d="M487.938 -77.3438L-104.062 362.656" stroke="#3C64B1"/>
<path d="M464.812 -94.5312L-127.188 345.469" stroke="#3C64B1"/>
<path d="M441.688 -111.719L-150.312 328.281" stroke="#3C64B1"/>
<path d="M418.562 -128.906L-173.438 311.094" stroke="#3C64B1"/>
<path d="M395.438 -146.094L-196.562 293.906" stroke="#3C64B1"/>
<path d="M372.312 -163.281L-219.688 276.719" stroke="#3C64B1"/>
<path d="M349.188 -180.469L-242.812 259.531" stroke="#3C64B1"/>
<path d="M326.062 -197.656L-265.938 242.344" stroke="#3C64B1"/>
<path d="M302.938 -214.844L-289.062 225.156" stroke="#3C64B1"/>
<path d="M603.562 8.59375L11.5625 448.594" stroke="#3C64B1"/>
<path d="M626.688 25.7812L34.6875 465.781" stroke="#3C64B1"/>
<path d="M649.812 42.9688L57.8125 482.969" stroke="#3C64B1"/>
<path d="M672.938 60.1562L80.9375 500.156" stroke="#3C64B1"/>
<path d="M696.062 77.3438L104.062 517.344" stroke="#3C64B1"/>
<path d="M719.188 94.5312L127.188 534.531" stroke="#3C64B1"/>
<path d="M742.312 111.719L150.312 551.719" stroke="#3C64B1"/>
<path d="M765.438 128.906L173.438 568.906" stroke="#3C64B1"/>
<path d="M788.562 146.094L196.562 586.094" stroke="#3C64B1"/>
<path d="M811.688 163.281L219.688 603.281" stroke="#3C64B1"/>
<path d="M834.812 180.469L242.812 620.469" stroke="#3C64B1"/>
<path d="M857.938 197.656L265.938 637.656" stroke="#3C64B1"/>
<path d="M881.062 214.844L289.062 654.844" stroke="#3C64B1"/>
</g>
</g>
<g opacity="0.5">
<path d="M284.333 205H307.667C309.508 205 311 206.492 311 208.333V231.667C311 233.508 309.508 235 307.667 235H284.333C282.492 235 281 233.508 281 231.667V208.333C281 206.492 282.492 205 284.333 205Z" stroke="#3C64B1" stroke-width="1.5" stroke-linecap="round" stroke-linejoin="round"/>
<path d="M301.833 216.667C300.453 216.667 299.333 215.547 299.333 214.167C299.333 212.786 300.453 211.667 301.833 211.667C303.214 211.667 304.333 212.786 304.333 214.167C304.333 215.547 303.214 216.667 301.833 216.667Z" stroke="#3C64B1" stroke-width="1.5" stroke-linecap="round" stroke-linejoin="round"/>
<path d="M281 225L289.333 216.667L307.667 235" stroke="#3C64B1" stroke-width="1.5" stroke-linecap="round" stroke-linejoin="round"/>
</g>
</svg>
