<svg width="302" height="35" viewBox="0 0 302 35" fill="none" xmlns="http://www.w3.org/2000/svg">
<path d="M0 33.5644L6.61344 0L17.3984 24.2634L28.57 0L34.512 33.5644H29.6485L26.6165 14.7198L17.317 35L8.28206 14.6996L4.90412 33.5644H0Z" fill="white"/>
<path d="M59.643 25.9821H46.1923L42.6923 33.5644H37.5847L53.1313 0.384171L68.1286 33.5644H62.9396L59.643 25.9821ZM57.7099 21.554L53.0499 10.9388L48.1662 21.554H57.7099Z" fill="white"/>
<path d="M82.7188 20.26L92.4457 33.5644H86.6462L77.6723 20.7857H76.8176V33.5644H72.0763V2.34546H77.6316C81.7828 2.34546 84.7809 3.12055 86.6258 4.67071C88.6607 6.39611 89.6782 8.67418 89.6782 11.5049C89.6782 13.7156 89.0406 15.6162 87.7654 17.2068C86.4902 18.7974 84.808 19.8151 82.7188 20.26ZM76.8176 16.6811H78.3234C82.8138 16.6811 85.059 14.9759 85.059 11.5656C85.059 8.37088 82.8748 6.77354 78.5066 6.77354H76.8176V16.6811Z" fill="white"/>
<path d="M101.928 2.34546V33.5644H97.187V2.34546H101.928Z" fill="white"/>
<path d="M126.815 6.77354H114.219V14.275H126.449V18.7031H114.219V29.1363H126.815V33.5644H109.478V2.34546H126.815V6.77354Z" fill="white"/>
<path d="M150.644 14.8007L162.874 2.34546H169.202L154.999 16.4789L169.284 33.5644H162.935L151.621 19.6736L150.644 20.6441V33.5644H145.903V2.34546H150.644V14.8007Z" fill="white"/>
<path d="M178.278 14.5581H191.83V2.34546H196.572V33.5644H191.83V18.9861H178.278V33.5644H173.537V2.34546H178.278V14.5581Z" fill="white"/>
<path d="M202.534 17.8134C202.534 13.419 204.155 9.64471 207.397 6.49047C210.626 3.33622 214.506 1.7591 219.037 1.7591C223.514 1.7591 227.353 3.3497 230.555 6.53091C233.77 9.71211 235.377 13.5336 235.377 17.9954C235.377 22.4841 233.763 26.2921 230.534 29.4194C227.292 32.5602 223.378 34.1306 218.793 34.1306C214.737 34.1306 211.094 32.7354 207.865 29.9451C204.311 26.8583 202.534 22.8144 202.534 17.8134ZM207.316 17.8741C207.316 21.3249 208.483 24.1623 210.816 26.3865C213.136 28.6106 215.815 29.7227 218.854 29.7227C222.15 29.7227 224.931 28.5904 227.197 26.3258C229.462 24.0343 230.595 21.244 230.595 17.9549C230.595 14.6255 229.476 11.8352 227.238 9.58406C225.013 7.31947 222.259 6.18717 218.976 6.18717C215.707 6.18717 212.946 7.31947 210.694 9.58406C208.442 11.8217 207.316 14.585 207.316 17.8741Z" fill="white"/>
<path d="M246.081 2.34546V21.1496C246.081 23.8321 246.522 25.7934 247.404 27.0335C248.719 28.8263 250.571 29.7227 252.959 29.7227C255.36 29.7227 257.219 28.8263 258.534 27.0335C259.416 25.8338 259.857 23.8725 259.857 21.1496V2.34546H264.598V22.4437C264.598 25.7327 263.567 28.4421 261.505 30.5719C259.186 32.9443 256.337 34.1306 252.959 34.1306C249.581 34.1306 246.739 32.9443 244.433 30.5719C242.371 28.4421 241.34 25.7327 241.34 22.4437V2.34546H246.081Z" fill="white"/>
<path d="M282.791 20.26L292.517 33.5644H286.718L277.744 20.7857H276.889V33.5644H272.148V2.34546H277.703C281.854 2.34546 284.853 3.12055 286.698 4.67071C288.732 6.39611 289.75 8.67418 289.75 11.5049C289.75 13.7156 289.112 15.6162 287.837 17.2068C286.562 18.7974 284.88 19.8151 282.791 20.26ZM276.889 16.6811H278.395C282.885 16.6811 285.131 14.9759 285.131 11.5656C285.131 8.37088 282.947 6.77354 278.578 6.77354H276.889V16.6811Z" fill="white"/>
<path d="M302 2.34546V33.5644H297.259V2.34546H302Z" fill="white"/>
</svg>
